<svg width="40" height="40" viewBox="0 0 40 40" fill="none" xmlns="http://www.w3.org/2000/svg">
  <path d="M35.8491 16.3577C35.3966 20.9484
  34.2652 25.9154 31.776 29.6783C31.248
   30.4309 30.4183 31.334 29.8149
    31.9361C27.1749 34.6454 23.6298
    36 19.9339 36C16.0116 36 11.9385
    34.4948 8.84598 31.4845C2.81175
    25.6897 2.35919 16.4329 7.78999
    10.7886C8.92141 9.65971 10.2037
    8.68135 11.7122 7.92877C11.0334
    9.05764 10.5808 10.4123 10.43
    11.8422C10.0528 15.0783 11.0334
    18.5401 13.0699 20.8731C15.3328
    23.5072 18.8025 25.0123 22.5738
" fill="url(#paint0_linear)"/>

  <defs>
    <linearGradient id="paint0_linear" x1="13.7531" y1="9.19695" x2="30.4882" y2="25.9699" gradientUnits="userSpaceOnUse">
      <stop offset="0.2192" stop-color="#07C3F2"/>
      <stop offset="0.8329" stop-color="#6B57FF"/>
    </linearGradient>
  </defs>
</svg>
