<svg width="108" height="109" viewBox="0 0 108 109" fill="none" xmlns="http://www.w3.org/2000/svg">
  <path d="M48.49 0.680003C53.94 0.0400032 54.4 6.51 49.72 6.77C26.8067 8.01 10.4833 18.8867 0.749989 39.4C0.609989 39.6933 0.46332 39.6967 0.309987 39.41C0.209987 39.2367 0.199988 39.0367 0.279988 38.81C8.24999 16.66 25.18 3.41 48.49 0.680003Z" fill="#872B8E"/>
  <path d="M66.87 21.77L66.39 20.87C66.37 20.8233 66.34 20.8133 66.3 20.84L66.05 20.98C65.8434 21.1067 65.7234 21.05 65.69 20.81C65.12 16.9 59.79 16.61 57.01 17.66C57.1567 13.7667 57.22 9.62666 57.2 5.24C57.19 2.62 58.7 1.22 61.26 1.7C103.24 9.61 121.55 56.46 94.59 90.09C94.4767 90.2233 94.3833 90.25 94.31 90.17C94.2833 90.1433 94.26 90.1133 94.24 90.08C94.2134 90.0133 94.22 89.9467 94.26 89.88C110.22 65.13 103.99 33.9 80.56 16.73C76.67 13.88 72.16 11.88 67.63 10.05C67.5263 10.009 67.4141 9.99412 67.3032 10.0067C67.1924 10.0193 67.0864 10.0589 66.9945 10.1222C66.9026 10.1854 66.8277 10.2703 66.7763 10.3693C66.725 10.4683 66.6988 10.5785 66.7 10.69L66.87 21.77Z" fill="#872B8E"/>
  <path d="M52.67 14.92C30.65 14.66 11.09 27.44 4.66001 48.85C4.05001 50.86 4.02 53.34 3.47 55.56C2.99 57.5 2.76334 59.1633 2.79 60.55C2.86334 63.9767 2.88667 67.3567 2.86 70.69C-0.213329 53.31 3.96 38.8 15.38 27.16C24.54 17.83 35.73 12.73 48.74 12.55C51.2267 12.51 52.5367 13.3 52.67 14.92Z" fill="#872B8E"/>
  <path d="M52.67 14.92C53.17 17.41 52.21 18.75 49.63 18.88C27.99 19.9 9.98 35.18 8.45 57.25C5.66 97.64 55.52 117.1 81.57 86.82C98.02 67.7 92.47 38.86 71.82 25.3C70.23 24.25 69.7 22.79 70.81 21.18C80.0833 25.7867 86.9167 32.9667 91.31 42.72C94.37 49.53 96.81 57.38 95.72 64.94C94.74 71.74 93.43 77.96 89.71 83.88C89.06 84.92 89.19 85.89 89.33 87.02C64.37 122.03 14.02 111.64 2.86001 70.69C2.88667 67.3567 2.86334 63.9767 2.79001 60.55C2.76334 59.1633 2.99001 57.5 3.47001 55.56C4.02001 53.34 4.05001 50.86 4.66001 48.85C11.09 27.44 30.65 14.66 52.67 14.92Z" fill="#E3068E"/>
  <path d="M66.87 21.77L66.73 25.1L56.99 22.35L57.01 17.66C59.79 16.61 65.12 16.9 65.69 20.81C65.7233 21.05 65.8433 21.1067 66.05 20.98L66.3 20.84C66.34 20.8133 66.37 20.8233 66.39 20.87L66.87 21.77Z" fill="#E3068E"/>
  <path d="M89.33 87.02C89.19 85.89 89.06 84.92 89.71 83.88C93.43 77.96 94.74 71.74 95.72 64.94C96.81 57.38 94.37 49.53 91.31 42.72C86.9167 32.9667 80.0833 25.7867 70.81 21.18C71.23 20.0067 72.0667 19.4 73.32 19.36C74.08 19.34 74.9367 19.65 75.89 20.29C98.25 35.25 104.75 64.46 89.33 87.02Z" fill="#872B8E"/>
  <path d="M56.99 22.35L66.73 25.1L66.83 28.04L66.94 32.51L65.89 32.63C65.5833 32.6633 65.3066 32.5933 65.06 32.42C62.7666 30.86 60.11 29.7033 57.09 28.95C57.03 28.73 57.04 28.5267 57.12 28.34L56.99 22.35Z" fill="#E55625"/>
  <path d="M52.73 27.83C15.82 24.89 1.28001 73.2 34.68 89.22C49.25 96.21 66.34 91.29 75.06 78.41C84.26 64.81 82.25 48.25 70.65 36.54C70.6033 36.4933 70.4733 36.4833 70.26 36.51L71.15 35.07C71.8767 34.3833 72.9533 34.1766 74.38 34.45C74.6797 34.5087 74.9547 34.6549 75.17 34.87C90.19 49.9 88.95 73.88 73.26 87.53C56.83 101.81 30.83 98.16 19.31 79.7C3.85001 54.92 21.61 24.81 50.35 24.36C50.6834 24.36 50.98 24.4567 51.24 24.65C52.42 25.5233 52.9167 26.5833 52.73 27.83Z" fill="#E55625"/>
  <path d="M52.73 27.83C53 29.55 51.57 30.59 49.91 30.67C17.31 32.21 8.56 75.04 38.93 87.69C47.1633 91.1233 55.7133 90.5167 64.58 85.87C81.6 75.57 84.13 53.4 70.52 39.22C69.9467 38.62 69.86 37.7167 70.26 36.51C70.4733 36.4833 70.6033 36.4933 70.65 36.54C82.25 48.25 84.26 64.81 75.06 78.41C66.34 91.29 49.25 96.21 34.68 89.22C1.28 73.2 15.82 24.89 52.73 27.83Z" fill="#FDB913"/>
  <path d="M57.09 28.95C60.11 29.7033 62.7667 30.86 65.06 32.42C65.3067 32.5933 65.5833 32.6633 65.89 32.63L66.94 32.51C66.7467 40.15 66.6933 47.7967 66.78 55.45C66.84 60.6833 66.48 64.35 65.7 66.45C60.76 79.83 43.33 81.64 34.99 70.23C30.83 64.52 31.13 56.36 35.16 50.51C39.9733 43.5034 47.1033 41.4067 56.55 44.22C56.8633 44.3133 57.02 44.1967 57.02 43.87L57.09 28.95Z" fill="#FDB913"/>
</svg>
