<svg width="40" height="40" viewBox="0 0 40 40" fill="none" xmlns="http://www.w3.org/2000/svg">
  <path d="M26.25 10.9375H25V9.075C25 8.0375 24.15 7.1875 23.1125 7.1875H16.8875C15.85 7.1875 15 8.0375 15 9.075V10.9375H13.75C12.375 10.9375 11.25 12.0625 11.25 13.4375V13.6C11.65 13.4875 12.0625 13.4375 12.5 13.4375H27.5C27.9375 13.4375 28.35 13.4875 28.75 13.6V13.4375C28.75 12.0625 27.625 10.9375 26.25 10.9375Z" fill="#FACD66"/>
  <path d="M22.4125 26.1625C22.0125 26.1625 21.7 26.4875 21.7 26.875C21.7 27.2625 22.025 27.5875 22.4125 27.5875C22.8 27.5875 23.125 27.2625 23.125 26.875C23.125 26.4875 22.8 26.1625 22.4125 26.1625Z" fill="#FACD66"/>
  <path d="M16.3375 27.2625C15.9375 27.2625 15.625 27.5875 15.625 27.975C15.625 28.3625 15.95 28.6875 16.3375 28.6875C16.725 28.6875 17.05 28.3625 17.05 27.975C17.05 27.5875 16.7375 27.2625 16.3375 27.2625Z" fill="#FACD66"/>
  <path d="M28.75 15.475C28.35 15.3625 27.9375 15.3125 27.5 15.3125H12.5C12.0625 15.3125 11.65 15.3625 11.25 15.475C9.1 16.0375 7.5 18 7.5 20.3125V27.8125C7.5 30.5625 9.75 32.8125 12.5 32.8125H27.5C30.25 32.8125 32.5 30.5625 32.5 27.8125V20.3125C32.5 18 30.9 16.0375 28.75 15.475ZM25 21.6V26.875C25 28.3 23.8375 29.4625 22.4125 29.4625C20.9875 29.4625 19.825 28.3 19.825 26.875C19.825 25.45 20.9875 24.2875 22.4125 24.2875C22.6625 24.2875 22.9 24.3375 23.125 24.4V22.825L18.9375 23.9625V27.975C18.9375 27.9875 18.9375 28 18.925 28.0125C18.9125 29.425 17.75 30.575 16.3375 30.575C14.9125 30.575 13.75 29.4125 13.75 27.975C13.75 26.5375 14.9125 25.3875 16.3375 25.3875C16.5875 25.3875 16.825 25.4375 17.0625 25.5V23.25V21.3125C17.0625 20.2375 17.7375 19.3625 18.7625 19.0875L22.075 18.175C23.1375 17.8875 23.8125 18.1625 24.1875 18.45C24.5625 18.7375 25 19.3 25 20.4125V21.6Z" fill="#FACD66"/>
</svg>
