<svg id="home-svg" width="40" height="40" viewBox="0 0 47 49" fill="none" xmlns="http://www.w3.org/2000/svg">
  <path d="M16.4901 36.1731V31.5728C16.4901 30.4071 17.4879 29.46 18.7238 29.4527H23.262C24.5035 29.4527 25.5099 30.4019 25.5099 31.5728V36.1598C25.5099 37.1709 26.3748 37.9926 27.4467 38H30.5429C31.9889 38.0034 33.377 37.4641 34.4008 36.501C35.4246 35.5379 36 34.2301 36 32.8662V19.7988C36 18.6971 35.4822 17.6521 34.5862 16.9452L24.0679 9.0114C22.2292 7.62368 19.6032 7.66851 17.819 9.11807L7.52686 16.9452C6.58854 17.6312 6.02771 18.6793 6 19.7988V32.8529C6 35.6955 8.44323 38 11.4571 38H14.4826C14.9987 38.0035 15.495 37.8126 15.8613 37.4696C16.2276 37.1266 16.4336 36.6599 16.4336 36.1731H16.4901Z" fill="#EFEEE0" fill-opacity="0.25" shape-rendering="crispEdges"/>
</svg>
