<svg width="40" height="40" viewBox="0 0 40 40" fill="none" xmlns="http://www.w3.org/2000/svg">
  <g opacity="0.25">
    <path d="M18.7045 5C22.2886 5 25.2115 7.985 25.2115 11.66V18.845H16.3984C15.7668 18.845 15.2674 19.3549 15.2674 20C15.2674 20.63 15.7668 21.1549 16.3984 21.1549H25.2115V28.325C25.2115 31.9999 22.2886 35 18.6751 35H11.5218C7.92305 35 5 32.015 5 28.34V11.675C5 7.985 7.93773 5 11.5365 5H18.7045ZM28.8789 14.8253C29.312 14.3603 30.0193 14.3603 30.4524 14.8103L34.668 19.1752C34.8846 19.4002 35 19.6853 35 20.0003C35 20.3002 34.8846 20.6002 34.668 20.8103L30.4524 25.1753C30.2358 25.4003 29.9472 25.5202 29.6728 25.5202C29.3841 25.5202 29.0954 25.4003 28.8789 25.1753C28.4458 24.7253 28.4458 23.9902 28.8789 23.5402L31.1887 21.1552L25.2115 21.1549V18.845L31.1887 18.8452L28.8789 16.4603C28.4458 16.0103 28.4458 15.2753 28.8789 14.8253Z" fill="#EFEEE0"/>
  </g>
</svg>
