<svg width="40" height="40" viewBox="0 0 40 40" fill="none" xmlns="http://www.w3.org/2000/svg">
  <path d="M19.5599 5C15.6299 5 12.4349 8.19499 12.4349 12.125C12.4349 15.98 15.4499 19.1 19.3799 19.235C19.4999 19.2199 19.6198 19.2199 19.7098 19.235C19.7399 19.235 19.7548 19.235 19.7849 19.235C19.7998 19.235 19.7998 19.235 19.8149 19.235C23.6549 19.1 26.6699 15.98 26.6848 12.125C26.6848 8.19499 23.4898 5 19.5599 5Z" fill="#FACD66"/>
  <path d="M27.18 23.2249C22.995 20.4349 16.17 20.4349 11.955 23.2249C10.05 24.5 9 26.225 9 28.07C9 29.915 10.05 31.625 11.94 32.885C14.04 34.2949 16.8 35 19.5599 35C22.32 35 25.08 34.2949 27.18 32.885C29.07 31.6099 30.12 29.9 30.12 28.0399C30.105 26.1949 29.07 24.4849 27.18 23.2249Z" fill="#FACD66"/>
</svg>
