<svg width="40" height="40" viewBox="0 0 40 40" fill="none" xmlns="http://www.w3.org/2000/svg">
  <path d="M14.5834 4.25V9.25H13.3334C12.9001 9.25 12.4834 9.26667 12.0834 9.33333V4.25C12.0834 3.56665 12.6501 3 13.3334 3C14.0167 3 14.5834 3.56665 14.5834 4.25Z" fill="#FACD66"/>
  <path d="M27.5 9.25H12.5C12.11 9.25 11.735 9.26589 11.375 9.32941C7.50502 9.80587 5 12.8394 5 17.1912V28.3087C5 33.0734 8.00002 36.25 12.5 36.25H27.5C32 36.25 35 33.0734 35 28.3087V17.1912C35 12.4265 32 9.25 27.5 9.25ZM13.82 26.7206C11.75 26.7206 10.07 24.9417 10.07 22.75C10.07 20.5582 11.75 18.7793 13.82 18.7793C15.89 18.7793 17.57 20.5582 17.57 22.75C17.57 24.9417 15.89 26.7206 13.82 26.7206ZM23.57 27.1176H22.82C22.2051 27.1176 21.695 26.5777 21.695 25.9264C21.695 25.2753 22.2051 24.7352 22.82 24.7352H23.57C24.1851 24.7352 24.695 25.2753 24.695 25.9264C24.695 26.5777 24.1851 27.1176 23.57 27.1176ZM28.8201 27.1176H28.07C27.455 27.1176 26.945 26.5777 26.945 25.9264C26.945 25.2753 27.455 24.7352 28.07 24.7352H28.8201C29.435 24.7352 29.9451 25.2753 29.9451 25.9264C29.9451 26.5777 29.435 27.1176 28.8201 27.1176ZM28.8201 20.7647H22.82C22.2051 20.7647 21.695 20.2247 21.695 19.5736C21.695 18.9223 22.2051 18.3823 22.82 18.3823H28.8201C29.435 18.3823 29.9451 18.9223 29.9451 19.5736C29.9451 20.2247 29.435 20.7647 28.8201 20.7647Z" fill="#FACD66" />
</svg>
